<svg width="17" height="18" viewBox="0 0 17 18" fill="none" xmlns="http://www.w3.org/2000/svg">
<path d="M2.93154 3.246C3.48241 3.69348 3.68917 3.65952 4.72444 3.5901L14.4827 3.00453C14.6895 3.00453 14.5174 2.79778 14.4487 2.76381L12.8272 1.59193C12.517 1.3512 12.1028 1.07503 11.3097 1.14371L1.86157 1.83339C1.51746 1.86736 1.44805 2.04015 1.5854 2.1775L2.93154 3.246ZM3.51711 5.52035L3.51711 15.7874C3.51711 16.339 3.79255 16.5458 4.41356 16.5111L15.1377 15.8908C15.7587 15.8568 15.8281 15.4773 15.8281 15.029L15.8281 4.83066C15.8281 4.38317 15.6561 4.14171 15.2758 4.17567L4.06872 4.83066C3.6552 4.86536 3.51711 5.07286 3.51711 5.52035ZM14.1039 6.07047C14.1726 6.38061 14.1039 6.69075 13.7938 6.72619L13.2769 6.82957V14.4088C12.8279 14.6502 12.4144 14.7883 12.0695 14.7883C11.5172 14.7883 11.3791 14.6155 10.9656 14.0994L7.58583 8.79304V13.9266L8.65507 14.1688C8.65507 14.1688 8.65507 14.789 7.79259 14.789L5.41339 14.9264C5.34471 14.789 5.41339 14.4442 5.65485 14.3755L6.27513 14.2035L6.27513 7.41514L5.41486 7.34573C5.34545 7.03559 5.51824 6.58811 6.00043 6.5534L8.55243 6.38135L12.0703 11.7563V7.00089L11.1731 6.89824C11.1044 6.51869 11.3799 6.24326 11.7247 6.20929L14.1039 6.07047ZM1.0685 0.902979L10.8969 0.179323C12.1035 0.0759439 12.4144 0.144617 13.1727 0.69622L16.3103 2.90115C16.8272 3.27997 17 3.38335 17 3.79686L17 15.8908C17 16.6484 16.7246 17.0974 15.7594 17.1653L4.34489 17.855C3.62123 17.8897 3.27565 17.7863 2.8961 17.3034L0.58557 14.3054C0.172053 13.7538 0 13.341 0 12.8581L0 2.10809C0 1.48855 0.276171 0.970914 1.0685 0.902979Z" fill="black"/>
</svg>
