<svg width="17" height="18" viewBox="0 0 17 18" fill="none" xmlns="http://www.w3.org/2000/svg">
<path d="M1.12461 9.28575C1.12461 12.2084 2.82462 14.7258 5.28307 15.9223L1.76538 6.28461C1.34298 7.22875 1.12463 8.25142 1.12461 9.28575ZM8.5 16.6611C9.35655 16.6611 10.1804 16.5108 10.9519 16.2427L10.8996 16.1446L8.63076 9.93306L6.42076 16.3604C7.07462 16.5565 7.77424 16.6611 8.5 16.6611ZM9.51345 5.8269L12.1811 13.7581L12.92 11.2996C13.2339 10.2796 13.4758 9.5473 13.4758 8.91306C13.4758 7.99768 13.1489 7.36999 12.8742 6.88613C12.495 6.27152 12.1485 5.75499 12.1485 5.15344C12.1485 4.47344 12.6585 3.84575 13.3908 3.84575H13.4823C12.1233 2.59816 10.3448 1.90729 8.5 1.91037C7.2785 1.91014 6.07609 2.21357 5.00096 2.79337C3.92581 3.37317 3.01167 4.21113 2.34076 5.2319L2.81154 5.24499C3.58307 5.24499 4.77307 5.1469 4.77307 5.1469C5.17846 5.1273 5.22424 5.70921 4.82538 5.75499C4.82538 5.75499 4.42655 5.8073 3.97538 5.8269L6.66924 13.8169L8.28424 8.97844L7.13345 5.8269C6.8757 5.81269 6.61841 5.79087 6.36193 5.76152C5.96307 5.73537 6.00885 5.1273 6.40769 5.1469C6.40769 5.1469 7.62385 5.24499 8.34962 5.24499C9.12115 5.24499 10.3111 5.1469 10.3111 5.1469C10.71 5.1273 10.7623 5.70921 10.3635 5.75499C10.3635 5.75499 9.96462 5.80075 9.51345 5.8269ZM12.2073 15.6608C13.3231 15.012 14.249 14.0818 14.8927 12.9631C15.5364 11.8444 15.8752 10.5764 15.8754 9.28575C15.8754 8.00421 15.5485 6.80113 14.9731 5.74844C15.0899 6.90658 14.9146 8.07556 14.4631 9.14844L12.2073 15.6608ZM8.5 17.7858C6.24566 17.7858 4.08365 16.8902 2.4896 15.2962C0.895533 13.7021 0 11.5401 0 9.28575C0 7.03142 0.895533 4.86941 2.4896 3.27535C4.08365 1.68128 6.24566 0.785751 8.5 0.785751C10.7543 0.785751 12.9163 1.68128 14.5104 3.27535C16.1045 4.86941 17 7.03142 17 9.28575C17 11.5401 16.1045 13.7021 14.5104 15.2962C12.9163 16.8902 10.7543 17.7858 8.5 17.7858Z" fill="#126FC2"/>
</svg>
